G04 Layer: TopLayer*
G04 EasyEDA v6.5.57, 2026-09-06 22:09:52*
G04 ba928902a84c4683882b99a64c78e7aa,334c5068c9ef4285bcccc64a41db27fd,10*
G04 Gerber Generator version 0.2*
G04 Scale: 100 percent, Rotated: No, Reflected: No *
G04 Dimensions in millimeters *
G04 leading zeros omitted , absolute positions ,4 integer and 5 decimal *
%FSLAX45Y45*%
%MOMM*%

%AMMACRO1*21,1,$1,$2,0,0,$3*%
%ADD10C,0.2540*%
%ADD11C,0.3000*%
%ADD12R,0.7501X0.3000*%
%ADD13MACRO1,1.35X1.41X0.0000*%
%ADD14R,1.3500X1.4100*%
%ADD15MACRO1,1X1.3995X90.0000*%
%ADD16R,1.3995X1.0000*%
%ADD17R,0.2200X0.4000*%
%ADD18R,0.0154X0.4000*%
%ADD19R,0.4000X0.2200*%
%ADD20R,0.4000X0.2800*%
%ADD21C,0.8080*%
%ADD22C,1.8000*%
%ADD23C,0.6096*%

%LPD*%
D10*
X6492547Y4009034D02*
G01*
X6719445Y4009034D01*
X7200597Y4088384D02*
G01*
X7159602Y4088384D01*
X7143092Y4104894D01*
X7143092Y6154877D01*
X7143193Y6157340D01*
X7143498Y6159804D01*
X7144006Y6162217D01*
X7144692Y6164579D01*
X7145581Y6166865D01*
X7146673Y6169101D01*
X7147918Y6171209D01*
X7149365Y6173215D01*
X7150940Y6175120D01*
X7152693Y6176873D01*
X7154547Y6178473D01*
X7156554Y6179921D01*
X7158662Y6181191D01*
X7160897Y6182283D01*
X7163183Y6183198D01*
X7165545Y6183909D01*
X7167958Y6184442D01*
X7170397Y6184747D01*
X7172860Y6184874D01*
X7173089Y6184874D01*
X5768672Y4948681D02*
G01*
X4733114Y5984239D01*
X2825879Y5984239D01*
X6203469Y4124883D02*
G01*
X6108016Y4124883D01*
X2825879Y5774181D02*
G01*
X4458718Y5774181D01*
X6108016Y4124883D01*
X6203469Y4124883D02*
G01*
X6298948Y4124883D01*
X6492547Y4059021D02*
G01*
X6540527Y4059021D01*
X6540527Y4059021D02*
G01*
X6540654Y4059148D01*
X6540654Y4140072D01*
X6503443Y4177284D01*
X6351348Y4177284D01*
X6298948Y4124883D01*
X5768672Y2948686D02*
G01*
X6203469Y3383483D01*
X6203469Y3924884D01*
X6372557Y4009034D02*
G01*
X6324602Y4009034D01*
X6324602Y4009034D02*
G01*
X6324602Y3950538D01*
X6298948Y3924884D01*
X6372557Y4059021D02*
G01*
X6372557Y4009034D01*
X6203469Y3924884D02*
G01*
X6298948Y3924884D01*
X6432550Y3999016D02*
G01*
X6470182Y3961384D01*
X6819595Y3961384D01*
D11*
X9163100Y1894890D02*
G01*
X9163100Y6154877D01*
X9223095Y1894890D02*
G01*
X9223095Y6154877D01*
X9283090Y1894890D02*
G01*
X9283090Y6154877D01*
X9343085Y1894890D02*
G01*
X9343085Y6154877D01*
X9403079Y1894890D02*
G01*
X9403079Y6154877D01*
X7173086Y1864893D02*
G01*
X9133103Y1864893D01*
X7173086Y1804898D02*
G01*
X9133103Y1804898D01*
X7173086Y1744878D02*
G01*
X9133103Y1744878D01*
X7173086Y1684883D02*
G01*
X9133103Y1684883D01*
X7173086Y1624888D02*
G01*
X9133103Y1624888D01*
X7173086Y6184874D02*
G01*
X9133103Y6184874D01*
X7173086Y6244869D02*
G01*
X9133103Y6244869D01*
X7173086Y6304889D02*
G01*
X9133103Y6304889D01*
X7173086Y6364884D02*
G01*
X9133103Y6364884D01*
X7173086Y6424879D02*
G01*
X9133103Y6424879D01*
X7143089Y1894890D02*
G01*
X7143089Y4024884D01*
X7083094Y4084878D01*
X7083094Y6154877D01*
X7023100Y1894890D02*
G01*
X7023100Y3984879D01*
X6963105Y4044873D01*
X6963105Y6154877D01*
X7083094Y1894890D02*
G01*
X7083094Y4004894D01*
X7023100Y4064888D01*
X7023100Y6154877D01*
X6963105Y1894890D02*
G01*
X6963105Y3964889D01*
X6903084Y4024884D01*
X6903084Y6154877D01*
X7143089Y6154877D02*
G01*
X7143089Y4104894D01*
X7159599Y4088384D01*
X7200595Y4088384D01*
X6806895Y3961384D02*
G01*
X6819595Y3961384D01*
X6886600Y3961384D01*
X6903084Y3944873D01*
X6903084Y1894890D01*
D12*
G01*
X6819595Y3961384D03*
D13*
G01*
X6203459Y3924881D03*
D14*
G01*
X6203467Y4124883D03*
D15*
G01*
X2825877Y5774181D03*
D16*
G01*
X2825877Y5984239D03*
D17*
G01*
X6432550Y3999001D03*
D19*
G01*
X6372555Y4009009D03*
G01*
X6372555Y4058996D03*
G01*
X6372555Y4109008D03*
D17*
G01*
X6432550Y4118990D03*
D19*
G01*
X6492544Y4108983D03*
G01*
X6492544Y4058996D03*
D20*
G01*
X6492544Y4009009D03*
D11*
G75*
G01*
X7143090Y6154877D02*
G02*
X7173087Y6184875I29997J0D01*
G75*
G01*
X7083095Y6154877D02*
G02*
X7173087Y6244869I89992J0D01*
G75*
G01*
X7023100Y6154877D02*
G02*
X7173087Y6304890I149987J26D01*
G75*
G01*
X6963105Y6154877D02*
G02*
X7173087Y6364884I210007J0D01*
G75*
G01*
X6903085Y6154877D02*
G02*
X7173087Y6424879I270002J0D01*
G75*
G01*
X7143090Y1894891D02*
G03*
X7173087Y1864893I29997J0D01*
G75*
G01*
X7083095Y1894891D02*
G03*
X7173087Y1804899I89992J0D01*
G75*
G01*
X7023100Y1894891D02*
G03*
X7173087Y1744878I149987J-26D01*
G75*
G01*
X6963105Y1894891D02*
G03*
X7173087Y1684884I210007J0D01*
G75*
G01*
X6903085Y1894891D02*
G03*
X7173087Y1624889I270002J0D01*
G75*
G01*
X9163101Y1894891D02*
G02*
X9133103Y1864893I-29998J0D01*
G75*
G01*
X9223096Y1894891D02*
G02*
X9133103Y1804899I-89993J0D01*
G75*
G01*
X9283090Y1894891D02*
G02*
X9133103Y1744878I-149987J-26D01*
G75*
G01*
X9343085Y1894891D02*
G02*
X9133103Y1684884I-210007J0D01*
G75*
G01*
X9403105Y1894891D02*
G02*
X9133103Y1624889I-270002J0D01*
G75*
G01*
X9163101Y6154877D02*
G03*
X9133103Y6184875I-29998J0D01*
G75*
G01*
X9223096Y6154877D02*
G03*
X9133103Y6244869I-89993J0D01*
G75*
G01*
X9283090Y6154877D02*
G03*
X9133103Y6304890I-149987J26D01*
G75*
G01*
X9343085Y6154877D02*
G03*
X9133103Y6364884I-210007J0D01*
G75*
G01*
X9403105Y6154877D02*
G03*
X9133103Y6424879I-270002J0D01*
D21*
G01*
X7200595Y4088384D03*
D22*
G01*
X5768670Y4948681D03*
G01*
X5768670Y2948686D03*
D23*
G01*
X6719443Y4009034D03*
M02*
