G04 Layer: TopSolderMaskLayer*
G04 EasyEDA v6.5.57, 2026-09-06 22:09:52*
G04 ba928902a84c4683882b99a64c78e7aa,334c5068c9ef4285bcccc64a41db27fd,10*
G04 Gerber Generator version 0.2*
G04 Scale: 100 percent, Rotated: No, Reflected: No *
G04 Dimensions in millimeters *
G04 leading zeros omitted , absolute positions ,4 integer and 5 decimal *
%FSLAX45Y45*%
%MOMM*%

%AMMACRO1*4,1,8,-0.3961,-0.2008,-0.4258,-0.1708,-0.4258,0.1711,-0.3961,0.2008,0.3959,0.2008,0.4258,0.1711,0.4258,-0.1708,0.3959,-0.2008,-0.3961,-0.2008,0*%
%AMMACRO2*4,1,8,-0.6961,-0.7558,-0.7258,-0.7258,-0.7258,0.7261,-0.6961,0.7558,0.6958,0.7558,0.7258,0.7261,0.7258,-0.7258,0.6958,-0.7558,-0.6961,-0.7558,0*%
%AMMACRO3*4,1,8,-0.6961,-0.7559,-0.7258,-0.7259,-0.7258,0.7262,-0.6961,0.7559,0.6958,0.7559,0.7258,0.7262,0.7258,-0.7259,0.6958,-0.7559,-0.6961,-0.7559,0*%
%AMMACRO4*4,1,8,-0.7209,-0.5508,-0.7506,-0.5208,-0.7506,0.5211,-0.7209,0.5508,0.7206,0.5508,0.7506,0.5211,0.7506,-0.5208,0.7206,-0.5508,-0.7209,-0.5508,0*%
%AMMACRO5*4,1,8,-0.1311,-0.2508,-0.1608,-0.2209,-0.1608,0.2211,-0.1311,0.2508,0.1308,0.2508,0.1608,0.2211,0.1608,-0.2209,0.1308,-0.2508,-0.1311,-0.2508,0*%
%AMMACRO6*4,1,8,-0.221,-0.1608,-0.2507,-0.1308,-0.2507,0.1311,-0.221,0.1608,0.2207,0.1608,0.2507,0.1311,0.2507,-0.1308,0.2207,-0.1608,-0.221,-0.1608,0*%
%AMMACRO7*4,1,8,-0.2211,-0.1608,-0.2508,-0.1308,-0.2508,0.1311,-0.2211,0.1608,0.2209,0.1608,0.2508,0.1311,0.2508,-0.1308,0.2209,-0.1608,-0.2211,-0.1608,0*%
%AMMACRO8*4,1,8,-0.2211,-0.1908,-0.2508,-0.1608,-0.2508,0.161,-0.2211,0.1908,0.2209,0.1908,0.2508,0.161,0.2508,-0.1608,0.2209,-0.1908,-0.2211,-0.1908,0*%
%ADD10C,0.2032*%
%ADD11MACRO1*%
%ADD12C,0.9096*%
%ADD13MACRO2*%
%ADD14MACRO3*%
%ADD15C,0.0162*%
%ADD16MACRO4*%
%ADD17C,1.9016*%
%ADD18MACRO5*%
%ADD19MACRO6*%
%ADD20MACRO7*%
%ADD21MACRO8*%

%LPD*%
G36*
X3766820Y4759706D02*
G01*
X3766820Y4756861D01*
X3778097Y4756861D01*
X3778097Y4759706D01*
G37*
G36*
X2578811Y4734052D02*
G01*
X2511044Y4731664D01*
X2454554Y4728565D01*
X2381148Y4722926D01*
X2292197Y4712970D01*
X2232914Y4704588D01*
X2182114Y4696053D01*
X2135530Y4687519D01*
X2077618Y4675174D01*
X2007819Y4658156D01*
X1933651Y4637024D01*
X1871573Y4616805D01*
X1822094Y4599025D01*
X1789633Y4586325D01*
X1744472Y4567478D01*
X1689404Y4541926D01*
X1655521Y4525010D01*
X1606092Y4498035D01*
X1557629Y4469079D01*
X1503070Y4432604D01*
X1457858Y4398772D01*
X1431493Y4377283D01*
X1392936Y4343501D01*
X1332026Y4281830D01*
X1295704Y4238040D01*
X1271625Y4205579D01*
X1244396Y4164634D01*
X1223873Y4129328D01*
X1201623Y4084878D01*
X1185062Y4046067D01*
X1171752Y4009339D01*
X1156665Y3957116D01*
X1146657Y3907688D01*
X1140968Y3866743D01*
X1138123Y3830370D01*
X1138123Y3822293D01*
X1219809Y3822293D01*
X1221282Y3837127D01*
X1222908Y3862933D01*
X1229868Y3907485D01*
X1240028Y3951478D01*
X1252677Y3992422D01*
X1268374Y4033367D01*
X1286154Y4072280D01*
X1303731Y4103928D01*
X1328013Y4143501D01*
X1351838Y4176877D01*
X1383030Y4215841D01*
X1420520Y4256836D01*
X1452219Y4287266D01*
X1484680Y4315714D01*
X1525625Y4348327D01*
X1551025Y4366717D01*
X1586331Y4390847D01*
X1621637Y4412894D01*
X1675282Y4443730D01*
X1754327Y4482693D01*
X1791055Y4498797D01*
X1834946Y4516729D01*
X1863039Y4526991D01*
X1925167Y4548936D01*
X1987296Y4567631D01*
X2033879Y4580229D01*
X2079040Y4591558D01*
X2131263Y4602784D01*
X2175052Y4611370D01*
X2206091Y4617110D01*
X2270150Y4626914D01*
X2335022Y4635347D01*
X2391054Y4641037D01*
X2441854Y4645406D01*
X2512466Y4649520D01*
X2637840Y4652721D01*
X2763774Y4649520D01*
X2834335Y4645406D01*
X2885186Y4641037D01*
X2941624Y4635347D01*
X3015030Y4625695D01*
X3070098Y4617059D01*
X3101187Y4611370D01*
X3151987Y4601362D01*
X3202787Y4590135D01*
X3242360Y4580229D01*
X3288944Y4567478D01*
X3340506Y4552137D01*
X3389172Y4535576D01*
X3430117Y4520793D01*
X3478123Y4501642D01*
X3512007Y4486960D01*
X3570224Y4459071D01*
X3616451Y4434738D01*
X3670096Y4403344D01*
X3729888Y4363313D01*
X3768902Y4333646D01*
X3814114Y4295952D01*
X3864660Y4246524D01*
X3897426Y4209846D01*
X3922826Y4177893D01*
X3947058Y4143959D01*
X3973474Y4101134D01*
X3998417Y4052620D01*
X4015536Y4012184D01*
X4032097Y3962654D01*
X4043222Y3917594D01*
X4050537Y3875227D01*
X4054805Y3834282D01*
X4056379Y3822293D01*
X4138320Y3822293D01*
X4136491Y3841343D01*
X4130954Y3891584D01*
X4125264Y3924655D01*
X4115511Y3968394D01*
X4101287Y4015740D01*
X4085691Y4057345D01*
X4071365Y4089806D01*
X4053535Y4125518D01*
X4031894Y4163263D01*
X4005732Y4202785D01*
X3985056Y4230979D01*
X3956710Y4266133D01*
X3931564Y4294530D01*
X3894582Y4332173D01*
X3856431Y4366717D01*
X3819753Y4397400D01*
X3775811Y4430268D01*
X3731514Y4460595D01*
X3691280Y4485386D01*
X3651758Y4508042D01*
X3602532Y4534255D01*
X3545890Y4560976D01*
X3503523Y4579264D01*
X3455162Y4598619D01*
X3391712Y4621174D01*
X3333038Y4639818D01*
X3267760Y4658309D01*
X3198571Y4675174D01*
X3133648Y4688890D01*
X3085642Y4697526D01*
X3024936Y4707331D01*
X2982569Y4713071D01*
X2909163Y4721402D01*
X2861157Y4725771D01*
X2796235Y4730089D01*
X2736951Y4732985D01*
G37*
G36*
X2810205Y4511649D02*
G01*
X2788716Y4487926D01*
X2770022Y4465370D01*
X2750870Y4438548D01*
X2732430Y4408881D01*
X2722880Y4391558D01*
X2637688Y4389526D01*
X2553411Y4391558D01*
X2539288Y4417110D01*
X2513888Y4455515D01*
X2486761Y4489348D01*
X2467711Y4509820D01*
X2465628Y4509820D01*
X2462225Y4482287D01*
X2455316Y4421581D01*
X2443937Y4295952D01*
X2439568Y4259224D01*
X2431186Y4209897D01*
X2422702Y4175963D01*
X2415692Y4153357D01*
X2405481Y4126534D01*
X2392019Y4099610D01*
X2374188Y4072890D01*
X2349195Y4046982D01*
X2328265Y4032504D01*
X2306320Y4021531D01*
X2285187Y4014470D01*
X2259736Y4009999D01*
X2230120Y4008272D01*
X2200452Y4011676D01*
X2176881Y4017162D01*
X2146960Y4028440D01*
X2117191Y4045813D01*
X2094585Y4062882D01*
X2073808Y4083913D01*
X2057095Y4106418D01*
X2045868Y4125315D01*
X2035962Y4149902D01*
X2029104Y4177334D01*
X2025700Y4207002D01*
X2027529Y4240377D01*
X2033320Y4269130D01*
X2045004Y4304385D01*
X2066798Y4348175D01*
X2089912Y4384903D01*
X2121865Y4427220D01*
X2151989Y4463491D01*
X2151024Y4464253D01*
X2107285Y4453331D01*
X2053640Y4439107D01*
X1980234Y4416806D01*
X1922424Y4396587D01*
X1865884Y4374642D01*
X1824939Y4356963D01*
X1772005Y4332274D01*
X1710588Y4299000D01*
X1671066Y4275074D01*
X1624736Y4244136D01*
X1585925Y4214926D01*
X1549298Y4183938D01*
X1519021Y4155135D01*
X1485036Y4119473D01*
X1456080Y4083405D01*
X1434033Y4051960D01*
X1414272Y4019245D01*
X1394104Y3979722D01*
X1376883Y3935831D01*
X1366672Y3900627D01*
X1360982Y3875227D01*
X1355496Y3835704D01*
X1352550Y3788968D01*
X1355394Y3743960D01*
X1359712Y3713429D01*
X1367078Y3680409D01*
X1376883Y3647948D01*
X1388364Y3618280D01*
X1408633Y3575964D01*
X1430731Y3539236D01*
X1450086Y3511905D01*
X1471726Y3484168D01*
X1503629Y3448608D01*
X1537563Y3415893D01*
X1567992Y3389579D01*
X1606092Y3359658D01*
X1644650Y3332632D01*
X1686560Y3305911D01*
X1734566Y3278327D01*
X1793849Y3248253D01*
X1840484Y3226714D01*
X1899767Y3202330D01*
X1948789Y3184042D01*
X1949907Y3185160D01*
X1930603Y3208883D01*
X1896211Y3253536D01*
X1872691Y3287928D01*
X1857908Y3312668D01*
X1841398Y3347212D01*
X1831289Y3379724D01*
X1827072Y3407918D01*
X1827123Y3427729D01*
X1829917Y3447491D01*
X1835556Y3469335D01*
X1846376Y3494532D01*
X1862074Y3518052D01*
X1881378Y3537356D01*
X1900377Y3550005D01*
X1917598Y3556965D01*
X1942084Y3563010D01*
X1983028Y3562959D01*
X2005634Y3558082D01*
X2026818Y3550920D01*
X2054301Y3536696D01*
X2076500Y3518915D01*
X2098243Y3495801D01*
X2118817Y3468268D01*
X2145792Y3424885D01*
X2166213Y3389884D01*
X2175967Y3421989D01*
X2189835Y3448862D01*
X2208022Y3473094D01*
X2226157Y3490061D01*
X2246782Y3504539D01*
X2269642Y3515715D01*
X2291638Y3522929D01*
X2316226Y3527755D01*
X2355748Y3527704D01*
X2380640Y3522878D01*
X2400909Y3515664D01*
X2420670Y3505708D01*
X2433421Y3497122D01*
X2451506Y3481425D01*
X2472334Y3457600D01*
X2495499Y3424986D01*
X2521813Y3381095D01*
X2551125Y3321812D01*
X2568143Y3281527D01*
X2589428Y3225088D01*
X2614422Y3149600D01*
X2637891Y3072688D01*
X2638806Y3073603D01*
X2660142Y3143961D01*
X2690774Y3235706D01*
X2710992Y3287826D01*
X2726690Y3324656D01*
X2754782Y3381095D01*
X2780080Y3423462D01*
X2803296Y3456482D01*
X2824124Y3480866D01*
X2845612Y3499307D01*
X2866796Y3511753D01*
X2887319Y3520287D01*
X2909163Y3525774D01*
X2941167Y3528974D01*
X2972054Y3525723D01*
X2998622Y3518814D01*
X3023971Y3507892D01*
X3048508Y3491585D01*
X3066694Y3474567D01*
X3083407Y3453790D01*
X3094532Y3434689D01*
X3104337Y3410762D01*
X3109366Y3391712D01*
X3111347Y3391712D01*
X3131972Y3427729D01*
X3153257Y3461613D01*
X3171393Y3487013D01*
X3186988Y3506165D01*
X3208477Y3526231D01*
X3228238Y3540302D01*
X3253638Y3552342D01*
X3270554Y3558032D01*
X3293160Y3562908D01*
X3331260Y3563162D01*
X3351022Y3559301D01*
X3374440Y3550920D01*
X3394811Y3537508D01*
X3408121Y3525672D01*
X3424478Y3503929D01*
X3436416Y3480968D01*
X3444544Y3455924D01*
X3448456Y3436162D01*
X3448354Y3396640D01*
X3443427Y3373323D01*
X3434943Y3347212D01*
X3418128Y3312414D01*
X3403498Y3287928D01*
X3386582Y3262528D01*
X3358946Y3225850D01*
X3326485Y3184956D01*
X3327146Y3184296D01*
X3375050Y3202127D01*
X3425850Y3222650D01*
X3483762Y3249422D01*
X3538829Y3277260D01*
X3583432Y3302762D01*
X3624935Y3328670D01*
X3667302Y3358184D01*
X3702558Y3385312D01*
X3741369Y3418586D01*
X3780332Y3457346D01*
X3810711Y3492144D01*
X3839819Y3531057D01*
X3863390Y3568903D01*
X3884777Y3611219D01*
X3899357Y3648151D01*
X3909110Y3680409D01*
X3916375Y3712870D01*
X3920540Y3741115D01*
X3923842Y3784904D01*
X3921912Y3825849D01*
X3918051Y3856888D01*
X3910685Y3890772D01*
X3903878Y3917594D01*
X3891178Y3954627D01*
X3880865Y3979722D01*
X3862527Y4016400D01*
X3846880Y4043222D01*
X3822954Y4078528D01*
X3799992Y4107891D01*
X3778808Y4132173D01*
X3746347Y4165701D01*
X3711041Y4197197D01*
X3687064Y4217060D01*
X3652672Y4243019D01*
X3605174Y4274870D01*
X3559962Y4301947D01*
X3509162Y4329633D01*
X3466795Y4349902D01*
X3411575Y4374184D01*
X3353206Y4396841D01*
X3293160Y4417720D01*
X3232454Y4436262D01*
X3180232Y4450638D01*
X3128010Y4463389D01*
X3124047Y4464710D01*
X3126740Y4461103D01*
X3152190Y4430064D01*
X3183382Y4389120D01*
X3204514Y4356658D01*
X3221532Y4325569D01*
X3234334Y4295952D01*
X3244291Y4264253D01*
X3250438Y4228185D01*
X3248863Y4185818D01*
X3242868Y4157573D01*
X3231692Y4127957D01*
X3218738Y4105351D01*
X3207207Y4089806D01*
X3191510Y4071874D01*
X3170326Y4053586D01*
X3147771Y4038701D01*
X3123742Y4025696D01*
X3089859Y4014419D01*
X3063036Y4009491D01*
X3017875Y4009542D01*
X2991053Y4014470D01*
X2969869Y4021683D01*
X2943047Y4035450D01*
X2924606Y4049369D01*
X2902000Y4072890D01*
X2883103Y4101337D01*
X2867609Y4133951D01*
X2852216Y4180179D01*
X2842260Y4225340D01*
X2835198Y4271924D01*
X2830880Y4312869D01*
X2826461Y4363720D01*
X2818079Y4449826D01*
X2810916Y4509109D01*
G37*
G36*
X1246987Y3784193D02*
G01*
X1245362Y3781551D01*
X1248206Y3779774D01*
X1251102Y3781551D01*
X1249476Y3784193D01*
G37*
G36*
X1139596Y3741826D02*
G01*
X1140866Y3734054D01*
X1145387Y3695954D01*
X1153718Y3651199D01*
X1164742Y3608425D01*
X1175918Y3573119D01*
X1186230Y3544874D01*
X1203096Y3505200D01*
X1226820Y3458311D01*
X1252880Y3414979D01*
X1272641Y3385565D01*
X1305915Y3341573D01*
X1337411Y3304895D01*
X1374190Y3265932D01*
X1422603Y3221786D01*
X1455013Y3194761D01*
X1505864Y3156610D01*
X1556715Y3122472D01*
X1604111Y3093770D01*
X1652676Y3067354D01*
X1707743Y3039821D01*
X1760982Y3016046D01*
X1812239Y2995218D01*
X1854555Y2979166D01*
X1903984Y2962402D01*
X1957628Y2945790D01*
X2014118Y2930245D01*
X2060092Y2918714D01*
X2131009Y2903169D01*
X2183536Y2893212D01*
X2234336Y2885033D01*
X2294331Y2876397D01*
X2355748Y2869438D01*
X2400909Y2865221D01*
X2458821Y2860954D01*
X2509621Y2858058D01*
X2594356Y2855264D01*
X2679039Y2855264D01*
X2766568Y2858109D01*
X2837180Y2862326D01*
X2906318Y2868015D01*
X2969869Y2875026D01*
X3031998Y2883611D01*
X3092704Y2893415D01*
X3144926Y2903372D01*
X3235096Y2923286D01*
X3321405Y2946755D01*
X3394811Y2969818D01*
X3452672Y2991104D01*
X3500678Y3010306D01*
X3541623Y3027781D01*
X3592474Y3051556D01*
X3660241Y3087217D01*
X3716680Y3120999D01*
X3764686Y3152749D01*
X3811270Y3187446D01*
X3838092Y3208883D01*
X3873398Y3239770D01*
X3912108Y3276244D01*
X3947871Y3315462D01*
X3977944Y3351479D01*
X4006494Y3389579D01*
X4030319Y3426307D01*
X4048658Y3457346D01*
X4064457Y3487013D01*
X4081932Y3525113D01*
X4096054Y3560419D01*
X4110990Y3605580D01*
X4122470Y3650792D01*
X4129430Y3686048D01*
X4136847Y3741826D01*
X4053840Y3741826D01*
X4050690Y3712870D01*
X4043375Y3673348D01*
X4032351Y3629609D01*
X4020667Y3593084D01*
X4002379Y3547719D01*
X3979722Y3501745D01*
X3951376Y3454552D01*
X3924604Y3416401D01*
X3901846Y3387344D01*
X3874566Y3355695D01*
X3839514Y3319221D01*
X3795776Y3279648D01*
X3747160Y3240786D01*
X3706825Y3212084D01*
X3671519Y3188919D01*
X3636213Y3167634D01*
X3600500Y3147618D01*
X3543046Y3117951D01*
X3502101Y3099257D01*
X3456940Y3080054D01*
X3399028Y3058261D01*
X3364229Y3045968D01*
X3301644Y3026156D01*
X3250793Y3012135D01*
X3194354Y2998012D01*
X3150565Y2988157D01*
X3085642Y2975356D01*
X3026359Y2965500D01*
X2952902Y2955544D01*
X2899257Y2949702D01*
X2815996Y2942894D01*
X2759506Y2939948D01*
X2676245Y2937154D01*
X2599537Y2937103D01*
X2513888Y2939948D01*
X2460244Y2942844D01*
X2389632Y2948432D01*
X2321864Y2955544D01*
X2249881Y2965399D01*
X2206091Y2972460D01*
X2145385Y2983839D01*
X2098802Y2993796D01*
X2031034Y3010255D01*
X1968906Y3027527D01*
X1894128Y3051759D01*
X1822094Y3078581D01*
X1763064Y3103880D01*
X1723288Y3122676D01*
X1669643Y3150616D01*
X1627886Y3174492D01*
X1593392Y3195828D01*
X1549755Y3225495D01*
X1511046Y3254705D01*
X1477619Y3282035D01*
X1453642Y3303473D01*
X1422908Y3333140D01*
X1390548Y3368141D01*
X1364488Y3399485D01*
X1343202Y3427729D01*
X1319479Y3462985D01*
X1299362Y3496868D01*
X1279855Y3535019D01*
X1266240Y3566058D01*
X1250899Y3607003D01*
X1238605Y3649370D01*
X1231188Y3682593D01*
X1224432Y3722776D01*
X1222502Y3741826D01*
G37*
D10*
X914400Y5370321D02*
G01*
X914400Y5131815D01*
X914400Y5370321D02*
G01*
X1016762Y5370321D01*
X1050797Y5358892D01*
X1062228Y5347715D01*
X1073404Y5324855D01*
X1073404Y5290820D01*
X1062228Y5268213D01*
X1050797Y5256784D01*
X1016762Y5245354D01*
X914400Y5245354D01*
X1148587Y5370321D02*
G01*
X1148587Y5131815D01*
X1148587Y5370321D02*
G01*
X1250695Y5370321D01*
X1284731Y5358892D01*
X1296162Y5347715D01*
X1307592Y5324855D01*
X1307592Y5302250D01*
X1296162Y5279389D01*
X1284731Y5268213D01*
X1250695Y5256784D01*
X1148587Y5256784D01*
X1228089Y5256784D02*
G01*
X1307592Y5131815D01*
X1473454Y5370321D02*
G01*
X1382521Y5131815D01*
X1473454Y5370321D02*
G01*
X1564386Y5131815D01*
X1416557Y5211318D02*
G01*
X1530350Y5211318D01*
X1718818Y5370321D02*
G01*
X1718818Y5131815D01*
X1639315Y5370321D02*
G01*
X1798573Y5370321D01*
X1873504Y5370321D02*
G01*
X1873504Y5131815D01*
X2032508Y5370321D02*
G01*
X2032508Y5131815D01*
X1873504Y5256784D02*
G01*
X2032508Y5256784D01*
X2198370Y5370321D02*
G01*
X2107691Y5131815D01*
X2198370Y5370321D02*
G01*
X2289302Y5131815D01*
X2141727Y5211318D02*
G01*
X2255265Y5211318D01*
X2364486Y5370321D02*
G01*
X2364486Y5131815D01*
X2364486Y5370321D02*
G01*
X2455418Y5131815D01*
X2546095Y5370321D02*
G01*
X2455418Y5131815D01*
X2546095Y5370321D02*
G01*
X2546095Y5131815D01*
X2796286Y5370321D02*
G01*
X2796286Y5131815D01*
X2796286Y5370321D02*
G01*
X2898393Y5370321D01*
X2932684Y5358892D01*
X2943859Y5347715D01*
X2955290Y5324855D01*
X2955290Y5302250D01*
X2943859Y5279389D01*
X2932684Y5268213D01*
X2898393Y5256784D01*
X2796286Y5256784D01*
X2875788Y5256784D02*
G01*
X2955290Y5131815D01*
X3030220Y5370321D02*
G01*
X3030220Y5199887D01*
X3041650Y5165852D01*
X3064509Y5142992D01*
X3098545Y5131815D01*
X3121152Y5131815D01*
X3155188Y5142992D01*
X3178047Y5165852D01*
X3189477Y5199887D01*
X3189477Y5370321D01*
X3264408Y5370321D02*
G01*
X3264408Y5131815D01*
X3264408Y5370321D02*
G01*
X3366770Y5370321D01*
X3400806Y5358892D01*
X3412236Y5347715D01*
X3423411Y5324855D01*
X3423411Y5290820D01*
X3412236Y5268213D01*
X3400806Y5256784D01*
X3366770Y5245354D01*
X3264408Y5245354D01*
X3498595Y5370321D02*
G01*
X3498595Y5131815D01*
X3498595Y5370321D02*
G01*
X3646170Y5370321D01*
X3498595Y5256784D02*
G01*
X3589274Y5256784D01*
X3498595Y5131815D02*
G01*
X3646170Y5131815D01*
X3721100Y5370321D02*
G01*
X3721100Y5131815D01*
X3721100Y5370321D02*
G01*
X3823461Y5370321D01*
X3857497Y5358892D01*
X3868927Y5347715D01*
X3880358Y5324855D01*
X3880358Y5302250D01*
X3868927Y5279389D01*
X3857497Y5268213D01*
X3823461Y5256784D01*
X3721100Y5256784D01*
X3800856Y5256784D02*
G01*
X3880358Y5131815D01*
X4046220Y5370321D02*
G01*
X3955288Y5131815D01*
X4046220Y5370321D02*
G01*
X4137152Y5131815D01*
X3989324Y5211318D02*
G01*
X4103115Y5211318D01*
X2603500Y2317750D02*
G01*
X2603500Y2155697D01*
X2603500Y2317750D02*
G01*
X2703829Y2317750D01*
X2603500Y2240534D02*
G01*
X2665222Y2240534D01*
X2603500Y2155697D02*
G01*
X2703829Y2155697D01*
X2754884Y2263647D02*
G01*
X2754884Y2155697D01*
X2754884Y2232913D02*
G01*
X2778252Y2256028D01*
X2793491Y2263647D01*
X2816859Y2263647D01*
X2832100Y2256028D01*
X2839974Y2232913D01*
X2839974Y2155697D01*
X2839974Y2232913D02*
G01*
X2863088Y2256028D01*
X2878581Y2263647D01*
X2901695Y2263647D01*
X2917190Y2256028D01*
X2925063Y2232913D01*
X2925063Y2155697D01*
X3068574Y2263647D02*
G01*
X3068574Y2155697D01*
X3068574Y2240534D02*
G01*
X3053334Y2256028D01*
X3037840Y2263647D01*
X3014472Y2263647D01*
X2999231Y2256028D01*
X2983738Y2240534D01*
X2975863Y2217420D01*
X2975863Y2201926D01*
X2983738Y2178812D01*
X2999231Y2163318D01*
X3014472Y2155697D01*
X3037840Y2155697D01*
X3053334Y2163318D01*
X3068574Y2178812D01*
X3119627Y2317750D02*
G01*
X3127502Y2310129D01*
X3135122Y2317750D01*
X3127502Y2325623D01*
X3119627Y2317750D01*
X3127502Y2263647D02*
G01*
X3127502Y2155697D01*
X3186175Y2317750D02*
G01*
X3186175Y2155697D01*
X3244850Y2248407D02*
G01*
X3237229Y2240534D01*
X3244850Y2232913D01*
X3252470Y2240534D01*
X3244850Y2248407D01*
X3244850Y2194305D02*
G01*
X3237229Y2186431D01*
X3244850Y2178812D01*
X3252470Y2186431D01*
X3244850Y2194305D01*
X3422650Y2263647D02*
G01*
X3422650Y2101595D01*
X3422650Y2240534D02*
G01*
X3438143Y2256028D01*
X3453384Y2263647D01*
X3476752Y2263647D01*
X3492245Y2256028D01*
X3507486Y2240534D01*
X3515359Y2217420D01*
X3515359Y2201926D01*
X3507486Y2178812D01*
X3492245Y2163318D01*
X3476752Y2155697D01*
X3453384Y2155697D01*
X3438143Y2163318D01*
X3422650Y2178812D01*
X3566413Y2263647D02*
G01*
X3566413Y2155697D01*
X3566413Y2217420D02*
G01*
X3574034Y2240534D01*
X3589527Y2256028D01*
X3605022Y2263647D01*
X3628136Y2263647D01*
X3771900Y2263647D02*
G01*
X3771900Y2155697D01*
X3771900Y2240534D02*
G01*
X3756406Y2256028D01*
X3740911Y2263647D01*
X3717797Y2263647D01*
X3702304Y2256028D01*
X3686809Y2240534D01*
X3679190Y2217420D01*
X3679190Y2201926D01*
X3686809Y2178812D01*
X3702304Y2163318D01*
X3717797Y2155697D01*
X3740911Y2155697D01*
X3756406Y2163318D01*
X3771900Y2178812D01*
X3846068Y2317750D02*
G01*
X3846068Y2186431D01*
X3853688Y2163318D01*
X3869181Y2155697D01*
X3884675Y2155697D01*
X3822954Y2263647D02*
G01*
X3877056Y2263647D01*
X3935729Y2317750D02*
G01*
X3935729Y2155697D01*
X3935729Y2232913D02*
G01*
X3958843Y2256028D01*
X3974338Y2263647D01*
X3997452Y2263647D01*
X4012945Y2256028D01*
X4020565Y2232913D01*
X4020565Y2155697D01*
X4164329Y2263647D02*
G01*
X4164329Y2155697D01*
X4164329Y2240534D02*
G01*
X4148836Y2256028D01*
X4133595Y2263647D01*
X4110227Y2263647D01*
X4094734Y2256028D01*
X4079493Y2240534D01*
X4071620Y2217420D01*
X4071620Y2201926D01*
X4079493Y2178812D01*
X4094734Y2163318D01*
X4110227Y2155697D01*
X4133595Y2155697D01*
X4148836Y2163318D01*
X4164329Y2178812D01*
X4215384Y2263647D02*
G01*
X4215384Y2155697D01*
X4215384Y2232913D02*
G01*
X4238497Y2256028D01*
X4253991Y2263647D01*
X4277106Y2263647D01*
X4292600Y2256028D01*
X4300474Y2232913D01*
X4300474Y2155697D01*
X4300474Y2232913D02*
G01*
X4323588Y2256028D01*
X4339081Y2263647D01*
X4362195Y2263647D01*
X4377690Y2256028D01*
X4385309Y2232913D01*
X4385309Y2155697D01*
X4436363Y2263647D02*
G01*
X4436363Y2155697D01*
X4436363Y2217420D02*
G01*
X4444238Y2240534D01*
X4459477Y2256028D01*
X4474972Y2263647D01*
X4498340Y2263647D01*
X4549140Y2263647D02*
G01*
X4549140Y2186431D01*
X4557013Y2163318D01*
X4572508Y2155697D01*
X4595622Y2155697D01*
X4611115Y2163318D01*
X4634229Y2186431D01*
X4634229Y2263647D02*
G01*
X4634229Y2155697D01*
X4685284Y2263647D02*
G01*
X4685284Y2101595D01*
X4685284Y2240534D02*
G01*
X4700777Y2256028D01*
X4716018Y2263647D01*
X4739386Y2263647D01*
X4754879Y2256028D01*
X4770120Y2240534D01*
X4777993Y2217420D01*
X4777993Y2201926D01*
X4770120Y2178812D01*
X4754879Y2163318D01*
X4739386Y2155697D01*
X4716018Y2155697D01*
X4700777Y2163318D01*
X4685284Y2178812D01*
X4829047Y2217420D02*
G01*
X4921758Y2217420D01*
X4921758Y2232913D01*
X4913884Y2248407D01*
X4906263Y2256028D01*
X4890770Y2263647D01*
X4867656Y2263647D01*
X4852161Y2256028D01*
X4836668Y2240534D01*
X4829047Y2217420D01*
X4829047Y2201926D01*
X4836668Y2178812D01*
X4852161Y2163318D01*
X4867656Y2155697D01*
X4890770Y2155697D01*
X4906263Y2163318D01*
X4921758Y2178812D01*
X4972558Y2263647D02*
G01*
X4972558Y2155697D01*
X4972558Y2217420D02*
G01*
X4980431Y2240534D01*
X4995925Y2256028D01*
X5011420Y2263647D01*
X5034534Y2263647D01*
X5178297Y2263647D02*
G01*
X5178297Y2155697D01*
X5178297Y2240534D02*
G01*
X5162804Y2256028D01*
X5147309Y2263647D01*
X5124195Y2263647D01*
X5108702Y2256028D01*
X5093208Y2240534D01*
X5085588Y2217420D01*
X5085588Y2201926D01*
X5093208Y2178812D01*
X5108702Y2163318D01*
X5124195Y2155697D01*
X5147309Y2155697D01*
X5162804Y2163318D01*
X5178297Y2178812D01*
X5275579Y2317750D02*
G01*
X5252465Y2310129D01*
X5236972Y2287015D01*
X5229097Y2248407D01*
X5229097Y2225039D01*
X5236972Y2186431D01*
X5252465Y2163318D01*
X5275579Y2155697D01*
X5291074Y2155697D01*
X5314188Y2163318D01*
X5329681Y2186431D01*
X5337302Y2225039D01*
X5337302Y2248407D01*
X5329681Y2287015D01*
X5314188Y2310129D01*
X5291074Y2317750D01*
X5275579Y2317750D01*
X5504434Y2256028D02*
G01*
X5496559Y2271521D01*
X5481065Y2279142D01*
X5457952Y2279142D01*
X5442458Y2271521D01*
X5434838Y2263647D01*
X5426963Y2240534D01*
X5426963Y2217420D01*
X5434838Y2201926D01*
X5450331Y2194305D01*
X5473445Y2194305D01*
X5488940Y2201926D01*
X5496559Y2217420D01*
X5457952Y2279142D02*
G01*
X5442458Y2263647D01*
X5434838Y2240534D01*
X5434838Y2217420D01*
X5442458Y2201926D01*
X5450331Y2194305D01*
X5504434Y2279142D02*
G01*
X5496559Y2217420D01*
X5496559Y2201926D01*
X5512054Y2194305D01*
X5527547Y2194305D01*
X5543041Y2209545D01*
X5550661Y2232913D01*
X5550661Y2248407D01*
X5543041Y2271521D01*
X5535168Y2287015D01*
X5519674Y2302510D01*
X5504434Y2310129D01*
X5481065Y2317750D01*
X5457952Y2317750D01*
X5434838Y2310129D01*
X5419343Y2302510D01*
X5403850Y2287015D01*
X5396229Y2271521D01*
X5388356Y2248407D01*
X5388356Y2225039D01*
X5396229Y2201926D01*
X5403850Y2186431D01*
X5419343Y2170937D01*
X5434838Y2163318D01*
X5457952Y2155697D01*
X5481065Y2155697D01*
X5504434Y2163318D01*
X5519674Y2170937D01*
X5527547Y2178812D01*
X5512054Y2279142D02*
G01*
X5504434Y2217420D01*
X5504434Y2201926D01*
X5512054Y2194305D01*
X5694425Y2263647D02*
G01*
X5694425Y2140204D01*
X5686552Y2116836D01*
X5678931Y2109215D01*
X5663438Y2101595D01*
X5640324Y2101595D01*
X5624829Y2109215D01*
X5694425Y2240534D02*
G01*
X5678931Y2256028D01*
X5663438Y2263647D01*
X5640324Y2263647D01*
X5624829Y2256028D01*
X5609336Y2240534D01*
X5601715Y2217420D01*
X5601715Y2201926D01*
X5609336Y2178812D01*
X5624829Y2163318D01*
X5640324Y2155697D01*
X5663438Y2155697D01*
X5678931Y2163318D01*
X5694425Y2178812D01*
X5745479Y2263647D02*
G01*
X5745479Y2155697D01*
X5745479Y2232913D02*
G01*
X5768593Y2256028D01*
X5784088Y2263647D01*
X5807202Y2263647D01*
X5822695Y2256028D01*
X5830315Y2232913D01*
X5830315Y2155697D01*
X5830315Y2232913D02*
G01*
X5853684Y2256028D01*
X5868924Y2263647D01*
X5892291Y2263647D01*
X5907786Y2256028D01*
X5915406Y2232913D01*
X5915406Y2155697D01*
X6059170Y2263647D02*
G01*
X6059170Y2155697D01*
X6059170Y2240534D02*
G01*
X6043675Y2256028D01*
X6028181Y2263647D01*
X6005068Y2263647D01*
X5989574Y2256028D01*
X5974079Y2240534D01*
X5966459Y2217420D01*
X5966459Y2201926D01*
X5974079Y2178812D01*
X5989574Y2163318D01*
X6005068Y2155697D01*
X6028181Y2155697D01*
X6043675Y2163318D01*
X6059170Y2178812D01*
X6110224Y2317750D02*
G01*
X6117843Y2310129D01*
X6125463Y2317750D01*
X6117843Y2325623D01*
X6110224Y2317750D01*
X6117843Y2263647D02*
G01*
X6117843Y2155697D01*
X6176518Y2317750D02*
G01*
X6176518Y2155697D01*
X6320281Y2240534D02*
G01*
X6304788Y2256028D01*
X6289293Y2263647D01*
X6266179Y2263647D01*
X6250686Y2256028D01*
X6235191Y2240534D01*
X6227572Y2217420D01*
X6227572Y2201926D01*
X6235191Y2178812D01*
X6250686Y2163318D01*
X6266179Y2155697D01*
X6289293Y2155697D01*
X6304788Y2163318D01*
X6320281Y2178812D01*
X6409943Y2263647D02*
G01*
X6394450Y2256028D01*
X6378956Y2240534D01*
X6371336Y2217420D01*
X6371336Y2201926D01*
X6378956Y2178812D01*
X6394450Y2163318D01*
X6409943Y2155697D01*
X6433058Y2155697D01*
X6448552Y2163318D01*
X6464045Y2178812D01*
X6471665Y2201926D01*
X6471665Y2217420D01*
X6464045Y2240534D01*
X6448552Y2256028D01*
X6433058Y2263647D01*
X6409943Y2263647D01*
X6522720Y2263647D02*
G01*
X6522720Y2155697D01*
X6522720Y2232913D02*
G01*
X6545834Y2256028D01*
X6561327Y2263647D01*
X6584695Y2263647D01*
X6599936Y2256028D01*
X6607809Y2232913D01*
X6607809Y2155697D01*
X6607809Y2232913D02*
G01*
X6630924Y2256028D01*
X6646418Y2263647D01*
X6669531Y2263647D01*
X6685025Y2256028D01*
X6692645Y2232913D01*
X6692645Y2155697D01*
X2706624Y1974342D02*
G01*
X2699004Y1989836D01*
X2683509Y2005329D01*
X2668015Y2012950D01*
X2637281Y2012950D01*
X2621788Y2005329D01*
X2606293Y1989836D01*
X2598420Y1974342D01*
X2590800Y1951228D01*
X2590800Y1912620D01*
X2598420Y1889505D01*
X2606293Y1874012D01*
X2621788Y1858518D01*
X2637281Y1850897D01*
X2668015Y1850897D01*
X2683509Y1858518D01*
X2699004Y1874012D01*
X2706624Y1889505D01*
X2706624Y1912620D01*
X2668015Y1912620D02*
G01*
X2706624Y1912620D01*
X2757677Y2012950D02*
G01*
X2757677Y1850897D01*
X2865881Y2012950D02*
G01*
X2865881Y1850897D01*
X2757677Y1935734D02*
G01*
X2865881Y1935734D01*
X2924556Y1943607D02*
G01*
X2916936Y1935734D01*
X2924556Y1928113D01*
X2932429Y1935734D01*
X2924556Y1943607D01*
X2924556Y1889505D02*
G01*
X2916936Y1881631D01*
X2924556Y1874012D01*
X2932429Y1881631D01*
X2924556Y1889505D01*
X3125470Y2012950D02*
G01*
X3125470Y1881631D01*
X3133343Y1858518D01*
X3148584Y1850897D01*
X3164077Y1850897D01*
X3102356Y1958847D02*
G01*
X3156458Y1958847D01*
X3215131Y2012950D02*
G01*
X3215131Y1850897D01*
X3215131Y1928113D02*
G01*
X3238245Y1951228D01*
X3253740Y1958847D01*
X3276854Y1958847D01*
X3292347Y1951228D01*
X3300222Y1928113D01*
X3300222Y1850897D01*
X3351275Y1912620D02*
G01*
X3443986Y1912620D01*
X3443986Y1928113D01*
X3436111Y1943607D01*
X3428491Y1951228D01*
X3412997Y1958847D01*
X3389884Y1958847D01*
X3374390Y1951228D01*
X3358895Y1935734D01*
X3351275Y1912620D01*
X3351275Y1897126D01*
X3358895Y1874012D01*
X3374390Y1858518D01*
X3389884Y1850897D01*
X3412997Y1850897D01*
X3428491Y1858518D01*
X3443986Y1874012D01*
X3533647Y1958847D02*
G01*
X3518154Y1951228D01*
X3502659Y1935734D01*
X3494786Y1912620D01*
X3494786Y1897126D01*
X3502659Y1874012D01*
X3518154Y1858518D01*
X3533647Y1850897D01*
X3556761Y1850897D01*
X3572256Y1858518D01*
X3587495Y1874012D01*
X3595370Y1897126D01*
X3595370Y1912620D01*
X3587495Y1935734D01*
X3572256Y1951228D01*
X3556761Y1958847D01*
X3533647Y1958847D01*
X3646424Y1958847D02*
G01*
X3646424Y1850897D01*
X3646424Y1928113D02*
G01*
X3669538Y1951228D01*
X3685031Y1958847D01*
X3708145Y1958847D01*
X3723640Y1951228D01*
X3731259Y1928113D01*
X3731259Y1850897D01*
X3782313Y2012950D02*
G01*
X3782313Y1850897D01*
X3840988Y1958847D02*
G01*
X3887470Y1850897D01*
X3933697Y1958847D02*
G01*
X3887470Y1850897D01*
X3871975Y1819910D01*
X3856481Y1804415D01*
X3840988Y1796795D01*
X3833368Y1796795D01*
X4077461Y2012950D02*
G01*
X4077461Y1850897D01*
X4077461Y1935734D02*
G01*
X4061968Y1951228D01*
X4046727Y1958847D01*
X4023359Y1958847D01*
X4007865Y1951228D01*
X3992625Y1935734D01*
X3984752Y1912620D01*
X3984752Y1897126D01*
X3992625Y1874012D01*
X4007865Y1858518D01*
X4023359Y1850897D01*
X4046727Y1850897D01*
X4061968Y1858518D01*
X4077461Y1874012D01*
X4128515Y1912620D02*
G01*
X4221225Y1912620D01*
X4221225Y1928113D01*
X4213606Y1943607D01*
X4205731Y1951228D01*
X4190238Y1958847D01*
X4167124Y1958847D01*
X4151629Y1951228D01*
X4136136Y1935734D01*
X4128515Y1912620D01*
X4128515Y1897126D01*
X4136136Y1874012D01*
X4151629Y1858518D01*
X4167124Y1850897D01*
X4190238Y1850897D01*
X4205731Y1858518D01*
X4221225Y1874012D01*
X4357370Y1935734D02*
G01*
X4349495Y1951228D01*
X4326381Y1958847D01*
X4303268Y1958847D01*
X4279900Y1951228D01*
X4272279Y1935734D01*
X4279900Y1920239D01*
X4295393Y1912620D01*
X4334002Y1904745D01*
X4349495Y1897126D01*
X4357370Y1881631D01*
X4357370Y1874012D01*
X4349495Y1858518D01*
X4326381Y1850897D01*
X4303268Y1850897D01*
X4279900Y1858518D01*
X4272279Y1874012D01*
X4408170Y2012950D02*
G01*
X4416043Y2005329D01*
X4423663Y2012950D01*
X4416043Y2020823D01*
X4408170Y2012950D01*
X4416043Y1958847D02*
G01*
X4416043Y1850897D01*
X4567427Y1958847D02*
G01*
X4567427Y1835404D01*
X4559808Y1812036D01*
X4551934Y1804415D01*
X4536440Y1796795D01*
X4513325Y1796795D01*
X4497831Y1804415D01*
X4567427Y1935734D02*
G01*
X4551934Y1951228D01*
X4536440Y1958847D01*
X4513325Y1958847D01*
X4497831Y1951228D01*
X4482338Y1935734D01*
X4474718Y1912620D01*
X4474718Y1897126D01*
X4482338Y1874012D01*
X4497831Y1858518D01*
X4513325Y1850897D01*
X4536440Y1850897D01*
X4551934Y1858518D01*
X4567427Y1874012D01*
X4618481Y1958847D02*
G01*
X4618481Y1850897D01*
X4618481Y1928113D02*
G01*
X4641595Y1951228D01*
X4657090Y1958847D01*
X4680204Y1958847D01*
X4695697Y1951228D01*
X4703318Y1928113D01*
X4703318Y1850897D01*
X4754372Y1912620D02*
G01*
X4847081Y1912620D01*
X4847081Y1928113D01*
X4839461Y1943607D01*
X4831588Y1951228D01*
X4816347Y1958847D01*
X4792979Y1958847D01*
X4777740Y1951228D01*
X4762245Y1935734D01*
X4754372Y1912620D01*
X4754372Y1897126D01*
X4762245Y1874012D01*
X4777740Y1858518D01*
X4792979Y1850897D01*
X4816347Y1850897D01*
X4831588Y1858518D01*
X4847081Y1874012D01*
X4898136Y1958847D02*
G01*
X4898136Y1850897D01*
X4898136Y1912620D02*
G01*
X4906009Y1935734D01*
X4921250Y1951228D01*
X4936743Y1958847D01*
X4959858Y1958847D01*
X2603500Y2317750D02*
G01*
X2603500Y2155697D01*
X2603500Y2317750D02*
G01*
X2703829Y2317750D01*
X2603500Y2240534D02*
G01*
X2665222Y2240534D01*
X2603500Y2155697D02*
G01*
X2703829Y2155697D01*
X2754884Y2263647D02*
G01*
X2754884Y2155697D01*
X2754884Y2232913D02*
G01*
X2778252Y2256028D01*
X2793491Y2263647D01*
X2816859Y2263647D01*
X2832100Y2256028D01*
X2839974Y2232913D01*
X2839974Y2155697D01*
X2839974Y2232913D02*
G01*
X2863088Y2256028D01*
X2878581Y2263647D01*
X2901695Y2263647D01*
X2917190Y2256028D01*
X2925063Y2232913D01*
X2925063Y2155697D01*
X3068574Y2263647D02*
G01*
X3068574Y2155697D01*
X3068574Y2240534D02*
G01*
X3053334Y2256028D01*
X3037840Y2263647D01*
X3014472Y2263647D01*
X2999231Y2256028D01*
X2983738Y2240534D01*
X2975863Y2217420D01*
X2975863Y2201926D01*
X2983738Y2178812D01*
X2999231Y2163318D01*
X3014472Y2155697D01*
X3037840Y2155697D01*
X3053334Y2163318D01*
X3068574Y2178812D01*
X3119627Y2317750D02*
G01*
X3127502Y2310129D01*
X3135122Y2317750D01*
X3127502Y2325623D01*
X3119627Y2317750D01*
X3127502Y2263647D02*
G01*
X3127502Y2155697D01*
X3186175Y2317750D02*
G01*
X3186175Y2155697D01*
X3244850Y2248407D02*
G01*
X3237229Y2240534D01*
X3244850Y2232913D01*
X3252470Y2240534D01*
X3244850Y2248407D01*
X3244850Y2194305D02*
G01*
X3237229Y2186431D01*
X3244850Y2178812D01*
X3252470Y2186431D01*
X3244850Y2194305D01*
X3422650Y2263647D02*
G01*
X3422650Y2101595D01*
X3422650Y2240534D02*
G01*
X3438143Y2256028D01*
X3453384Y2263647D01*
X3476752Y2263647D01*
X3492245Y2256028D01*
X3507486Y2240534D01*
X3515359Y2217420D01*
X3515359Y2201926D01*
X3507486Y2178812D01*
X3492245Y2163318D01*
X3476752Y2155697D01*
X3453384Y2155697D01*
X3438143Y2163318D01*
X3422650Y2178812D01*
X3566413Y2263647D02*
G01*
X3566413Y2155697D01*
X3566413Y2217420D02*
G01*
X3574034Y2240534D01*
X3589527Y2256028D01*
X3605022Y2263647D01*
X3628136Y2263647D01*
X3771900Y2263647D02*
G01*
X3771900Y2155697D01*
X3771900Y2240534D02*
G01*
X3756406Y2256028D01*
X3740911Y2263647D01*
X3717797Y2263647D01*
X3702304Y2256028D01*
X3686809Y2240534D01*
X3679190Y2217420D01*
X3679190Y2201926D01*
X3686809Y2178812D01*
X3702304Y2163318D01*
X3717797Y2155697D01*
X3740911Y2155697D01*
X3756406Y2163318D01*
X3771900Y2178812D01*
X3846068Y2317750D02*
G01*
X3846068Y2186431D01*
X3853688Y2163318D01*
X3869181Y2155697D01*
X3884675Y2155697D01*
X3822954Y2263647D02*
G01*
X3877056Y2263647D01*
X3935729Y2317750D02*
G01*
X3935729Y2155697D01*
X3935729Y2232913D02*
G01*
X3958843Y2256028D01*
X3974338Y2263647D01*
X3997452Y2263647D01*
X4012945Y2256028D01*
X4020565Y2232913D01*
X4020565Y2155697D01*
X4164329Y2263647D02*
G01*
X4164329Y2155697D01*
X4164329Y2240534D02*
G01*
X4148836Y2256028D01*
X4133595Y2263647D01*
X4110227Y2263647D01*
X4094734Y2256028D01*
X4079493Y2240534D01*
X4071620Y2217420D01*
X4071620Y2201926D01*
X4079493Y2178812D01*
X4094734Y2163318D01*
X4110227Y2155697D01*
X4133595Y2155697D01*
X4148836Y2163318D01*
X4164329Y2178812D01*
X4215384Y2263647D02*
G01*
X4215384Y2155697D01*
X4215384Y2232913D02*
G01*
X4238497Y2256028D01*
X4253991Y2263647D01*
X4277106Y2263647D01*
X4292600Y2256028D01*
X4300474Y2232913D01*
X4300474Y2155697D01*
X4300474Y2232913D02*
G01*
X4323588Y2256028D01*
X4339081Y2263647D01*
X4362195Y2263647D01*
X4377690Y2256028D01*
X4385309Y2232913D01*
X4385309Y2155697D01*
X4436363Y2263647D02*
G01*
X4436363Y2155697D01*
X4436363Y2217420D02*
G01*
X4444238Y2240534D01*
X4459477Y2256028D01*
X4474972Y2263647D01*
X4498340Y2263647D01*
X4549140Y2263647D02*
G01*
X4549140Y2186431D01*
X4557013Y2163318D01*
X4572508Y2155697D01*
X4595622Y2155697D01*
X4611115Y2163318D01*
X4634229Y2186431D01*
X4634229Y2263647D02*
G01*
X4634229Y2155697D01*
X4685284Y2263647D02*
G01*
X4685284Y2101595D01*
X4685284Y2240534D02*
G01*
X4700777Y2256028D01*
X4716018Y2263647D01*
X4739386Y2263647D01*
X4754879Y2256028D01*
X4770120Y2240534D01*
X4777993Y2217420D01*
X4777993Y2201926D01*
X4770120Y2178812D01*
X4754879Y2163318D01*
X4739386Y2155697D01*
X4716018Y2155697D01*
X4700777Y2163318D01*
X4685284Y2178812D01*
X4829047Y2217420D02*
G01*
X4921758Y2217420D01*
X4921758Y2232913D01*
X4913884Y2248407D01*
X4906263Y2256028D01*
X4890770Y2263647D01*
X4867656Y2263647D01*
X4852161Y2256028D01*
X4836668Y2240534D01*
X4829047Y2217420D01*
X4829047Y2201926D01*
X4836668Y2178812D01*
X4852161Y2163318D01*
X4867656Y2155697D01*
X4890770Y2155697D01*
X4906263Y2163318D01*
X4921758Y2178812D01*
X4972558Y2263647D02*
G01*
X4972558Y2155697D01*
X4972558Y2217420D02*
G01*
X4980431Y2240534D01*
X4995925Y2256028D01*
X5011420Y2263647D01*
X5034534Y2263647D01*
X5178297Y2263647D02*
G01*
X5178297Y2155697D01*
X5178297Y2240534D02*
G01*
X5162804Y2256028D01*
X5147309Y2263647D01*
X5124195Y2263647D01*
X5108702Y2256028D01*
X5093208Y2240534D01*
X5085588Y2217420D01*
X5085588Y2201926D01*
X5093208Y2178812D01*
X5108702Y2163318D01*
X5124195Y2155697D01*
X5147309Y2155697D01*
X5162804Y2163318D01*
X5178297Y2178812D01*
X5275579Y2317750D02*
G01*
X5252465Y2310129D01*
X5236972Y2287015D01*
X5229097Y2248407D01*
X5229097Y2225039D01*
X5236972Y2186431D01*
X5252465Y2163318D01*
X5275579Y2155697D01*
X5291074Y2155697D01*
X5314188Y2163318D01*
X5329681Y2186431D01*
X5337302Y2225039D01*
X5337302Y2248407D01*
X5329681Y2287015D01*
X5314188Y2310129D01*
X5291074Y2317750D01*
X5275579Y2317750D01*
X5504434Y2256028D02*
G01*
X5496559Y2271521D01*
X5481065Y2279142D01*
X5457952Y2279142D01*
X5442458Y2271521D01*
X5434838Y2263647D01*
X5426963Y2240534D01*
X5426963Y2217420D01*
X5434838Y2201926D01*
X5450331Y2194305D01*
X5473445Y2194305D01*
X5488940Y2201926D01*
X5496559Y2217420D01*
X5457952Y2279142D02*
G01*
X5442458Y2263647D01*
X5434838Y2240534D01*
X5434838Y2217420D01*
X5442458Y2201926D01*
X5450331Y2194305D01*
X5504434Y2279142D02*
G01*
X5496559Y2217420D01*
X5496559Y2201926D01*
X5512054Y2194305D01*
X5527547Y2194305D01*
X5543041Y2209545D01*
X5550661Y2232913D01*
X5550661Y2248407D01*
X5543041Y2271521D01*
X5535168Y2287015D01*
X5519674Y2302510D01*
X5504434Y2310129D01*
X5481065Y2317750D01*
X5457952Y2317750D01*
X5434838Y2310129D01*
X5419343Y2302510D01*
X5403850Y2287015D01*
X5396229Y2271521D01*
X5388356Y2248407D01*
X5388356Y2225039D01*
X5396229Y2201926D01*
X5403850Y2186431D01*
X5419343Y2170937D01*
X5434838Y2163318D01*
X5457952Y2155697D01*
X5481065Y2155697D01*
X5504434Y2163318D01*
X5519674Y2170937D01*
X5527547Y2178812D01*
X5512054Y2279142D02*
G01*
X5504434Y2217420D01*
X5504434Y2201926D01*
X5512054Y2194305D01*
X5694425Y2263647D02*
G01*
X5694425Y2140204D01*
X5686552Y2116836D01*
X5678931Y2109215D01*
X5663438Y2101595D01*
X5640324Y2101595D01*
X5624829Y2109215D01*
X5694425Y2240534D02*
G01*
X5678931Y2256028D01*
X5663438Y2263647D01*
X5640324Y2263647D01*
X5624829Y2256028D01*
X5609336Y2240534D01*
X5601715Y2217420D01*
X5601715Y2201926D01*
X5609336Y2178812D01*
X5624829Y2163318D01*
X5640324Y2155697D01*
X5663438Y2155697D01*
X5678931Y2163318D01*
X5694425Y2178812D01*
X5745479Y2263647D02*
G01*
X5745479Y2155697D01*
X5745479Y2232913D02*
G01*
X5768593Y2256028D01*
X5784088Y2263647D01*
X5807202Y2263647D01*
X5822695Y2256028D01*
X5830315Y2232913D01*
X5830315Y2155697D01*
X5830315Y2232913D02*
G01*
X5853684Y2256028D01*
X5868924Y2263647D01*
X5892291Y2263647D01*
X5907786Y2256028D01*
X5915406Y2232913D01*
X5915406Y2155697D01*
X6059170Y2263647D02*
G01*
X6059170Y2155697D01*
X6059170Y2240534D02*
G01*
X6043675Y2256028D01*
X6028181Y2263647D01*
X6005068Y2263647D01*
X5989574Y2256028D01*
X5974079Y2240534D01*
X5966459Y2217420D01*
X5966459Y2201926D01*
X5974079Y2178812D01*
X5989574Y2163318D01*
X6005068Y2155697D01*
X6028181Y2155697D01*
X6043675Y2163318D01*
X6059170Y2178812D01*
X6110224Y2317750D02*
G01*
X6117843Y2310129D01*
X6125463Y2317750D01*
X6117843Y2325623D01*
X6110224Y2317750D01*
X6117843Y2263647D02*
G01*
X6117843Y2155697D01*
X6176518Y2317750D02*
G01*
X6176518Y2155697D01*
X6320281Y2240534D02*
G01*
X6304788Y2256028D01*
X6289293Y2263647D01*
X6266179Y2263647D01*
X6250686Y2256028D01*
X6235191Y2240534D01*
X6227572Y2217420D01*
X6227572Y2201926D01*
X6235191Y2178812D01*
X6250686Y2163318D01*
X6266179Y2155697D01*
X6289293Y2155697D01*
X6304788Y2163318D01*
X6320281Y2178812D01*
X6409943Y2263647D02*
G01*
X6394450Y2256028D01*
X6378956Y2240534D01*
X6371336Y2217420D01*
X6371336Y2201926D01*
X6378956Y2178812D01*
X6394450Y2163318D01*
X6409943Y2155697D01*
X6433058Y2155697D01*
X6448552Y2163318D01*
X6464045Y2178812D01*
X6471665Y2201926D01*
X6471665Y2217420D01*
X6464045Y2240534D01*
X6448552Y2256028D01*
X6433058Y2263647D01*
X6409943Y2263647D01*
X6522720Y2263647D02*
G01*
X6522720Y2155697D01*
X6522720Y2232913D02*
G01*
X6545834Y2256028D01*
X6561327Y2263647D01*
X6584695Y2263647D01*
X6599936Y2256028D01*
X6607809Y2232913D01*
X6607809Y2155697D01*
X6607809Y2232913D02*
G01*
X6630924Y2256028D01*
X6646418Y2263647D01*
X6669531Y2263647D01*
X6685025Y2256028D01*
X6692645Y2232913D01*
X6692645Y2155697D01*
D11*
G01*
X6819607Y3961371D03*
D12*
G01*
X7200595Y4088384D03*
D13*
G01*
X6203454Y3924871D03*
D14*
G01*
X6203454Y4124883D03*
D16*
G01*
X2825877Y5774169D03*
G01*
X2825877Y5984227D03*
D17*
G01*
X5768670Y4948681D03*
G01*
X5768670Y2948686D03*
D18*
G01*
X6432550Y3999014D03*
D19*
G01*
X6372555Y4009009D03*
G01*
X6372555Y4058996D03*
G01*
X6372555Y4109008D03*
D18*
G01*
X6432550Y4119003D03*
D20*
G01*
X6492557Y4108983D03*
G01*
X6492557Y4058996D03*
D21*
G01*
X6492557Y4009008D03*
M02*
